<?xml version="1.0" standalone="no"?><!-- Generator: Gravit.io --><svg xmlns="http://www.w3.org/2000/svg" xmlns:xlink="http://www.w3.org/1999/xlink" style="isolation:isolate" viewBox="42.464 1008.913 1162.549 258.753" width="1162.549" height="258.753"><g id="Group"><path d=" M 318.146 1142.307 L 354.471 1142.307 C 367.862 1142.307 380.417 1146.659 380.417 1162.227 C 380.417 1175.284 371.712 1183.654 357.986 1183.654 L 318.146 1183.654 L 318.146 1142.307 Z  M 302.243 1197.046 L 359.995 1197.046 C 383.765 1197.046 396.32 1180.306 396.32 1162.73 C 396.32 1147.999 388.285 1136.95 373.554 1133.937 L 373.554 1133.603 C 384.602 1129.083 391.298 1119.541 391.298 1106.819 C 391.298 1095.101 385.104 1086.564 377.237 1081.877 C 370.038 1077.525 356.145 1077.525 345.599 1077.525 L 302.243 1077.525 L 302.243 1197.046 Z  M 318.146 1090.916 L 349.951 1090.916 C 363.677 1090.916 375.395 1093.26 375.395 1109.832 C 375.395 1122.387 368.03 1128.915 349.951 1128.915 L 318.146 1128.915 L 318.146 1090.916 Z  M 415.403 1197.046 L 429.632 1197.046 L 429.632 1110.502 L 415.403 1110.502 L 415.403 1197.046 Z  M 429.632 1077.525 L 415.403 1077.525 L 415.403 1094.934 L 429.632 1094.934 L 429.632 1077.525 Z  M 447.041 1153.858 C 447.041 1179.134 461.604 1199.055 489.058 1199.055 C 516.511 1199.055 531.074 1179.134 531.074 1153.858 C 531.074 1128.413 516.511 1108.493 489.058 1108.493 C 461.604 1108.493 447.041 1128.413 447.041 1153.858 Z  M 462.107 1153.858 C 462.107 1132.766 474.159 1121.048 489.058 1121.048 C 503.956 1121.048 516.008 1132.766 516.008 1153.858 C 516.008 1174.782 503.956 1186.5 489.058 1186.5 C 474.159 1186.5 462.107 1174.782 462.107 1153.858 Z  M 542.29 1169.76 C 543.127 1191.187 559.532 1199.055 578.95 1199.055 C 596.526 1199.055 615.777 1192.359 615.777 1171.769 C 615.777 1155.029 601.716 1150.342 587.487 1147.162 C 574.262 1143.981 559.197 1142.307 559.197 1132.096 C 559.197 1123.391 569.073 1121.048 577.61 1121.048 C 586.985 1121.048 596.694 1124.563 597.698 1135.611 L 611.927 1135.611 C 610.755 1114.519 595.522 1108.493 576.439 1108.493 C 561.373 1108.493 544.131 1115.691 544.131 1133.1 C 544.131 1149.673 558.36 1154.36 572.421 1157.54 C 586.65 1160.721 600.711 1162.562 600.711 1173.61 C 600.711 1184.491 588.659 1186.5 579.787 1186.5 C 568.069 1186.5 557.021 1182.482 556.518 1169.76 L 542.29 1169.76 Z  M 704.999 1138.29 C 702.991 1117.7 687.255 1108.493 667.67 1108.493 C 640.217 1108.493 626.825 1128.915 626.825 1154.862 C 626.825 1180.641 640.886 1199.055 667.335 1199.055 C 689.097 1199.055 702.321 1186.5 705.501 1165.408 L 690.938 1165.408 C 689.097 1178.465 680.894 1186.5 667.168 1186.5 C 649.089 1186.5 641.891 1170.765 641.891 1154.862 C 641.891 1137.285 648.252 1121.048 668.842 1121.048 C 680.559 1121.048 688.092 1127.409 690.268 1138.29 L 704.999 1138.29 Z  M 721.404 1197.046 L 735.633 1197.046 L 735.633 1148.166 C 735.633 1132.598 744.003 1121.048 761.245 1121.048 C 772.125 1121.048 778.821 1127.911 778.821 1138.457 L 778.821 1197.046 L 793.05 1197.046 L 793.05 1140.131 C 793.05 1121.55 786.019 1108.493 763.253 1108.493 C 752.875 1108.493 740.655 1112.845 735.968 1123.224 L 735.633 1123.224 L 735.633 1077.525 L 721.404 1077.525 L 721.404 1197.046 Z  M 874.237 1169.593 C 871.726 1180.808 863.524 1186.5 851.806 1186.5 C 832.89 1186.5 824.353 1173.108 824.855 1158.042 L 889.638 1158.042 C 890.475 1137.118 881.101 1108.493 850.467 1108.493 C 826.864 1108.493 809.79 1127.576 809.79 1153.523 C 810.627 1179.971 823.683 1199.055 851.304 1199.055 C 870.722 1199.055 884.448 1188.676 888.299 1169.593 L 874.237 1169.593 Z  M 824.855 1145.488 C 825.86 1132.263 834.732 1121.048 849.63 1121.048 C 863.691 1121.048 873.902 1131.929 874.572 1145.488 L 824.855 1145.488 Z  M 904.369 1197.046 L 918.597 1197.046 L 918.597 1143.144 C 918.597 1136.616 924.791 1121.048 941.698 1121.048 C 954.42 1121.048 957.936 1129.083 957.936 1140.298 L 957.936 1197.046 L 972.164 1197.046 L 972.164 1143.144 C 972.164 1129.752 981.036 1121.048 994.763 1121.048 C 1008.657 1121.048 1011.503 1129.585 1011.503 1140.298 L 1011.503 1197.046 L 1025.731 1197.046 L 1025.731 1133.603 C 1025.731 1115.691 1014.181 1108.493 996.939 1108.493 C 985.891 1108.493 975.68 1114.017 969.821 1123.224 C 966.306 1112.678 956.597 1108.493 946.051 1108.493 C 934.165 1108.493 924.456 1113.515 918.095 1123.224 L 917.76 1123.224 L 917.76 1110.502 L 904.369 1110.502 L 904.369 1197.046 Z  M 1100.725 1166.914 C 1100.725 1174.782 1093.025 1186.5 1074.276 1186.5 C 1065.572 1186.5 1057.537 1183.152 1057.537 1173.778 C 1057.537 1163.232 1065.572 1159.884 1074.946 1158.21 C 1084.488 1156.536 1095.201 1156.368 1100.725 1152.351 L 1100.725 1166.914 Z  M 1123.826 1185.663 C 1121.984 1186.332 1120.645 1186.5 1119.474 1186.5 C 1114.954 1186.5 1114.954 1183.487 1114.954 1176.791 L 1114.954 1132.263 C 1114.954 1112.008 1098.047 1108.493 1082.479 1108.493 C 1063.228 1108.493 1046.656 1116.026 1045.819 1137.453 L 1060.048 1137.453 C 1060.717 1124.73 1069.589 1121.048 1081.642 1121.048 C 1090.681 1121.048 1100.892 1123.057 1100.892 1135.444 C 1100.892 1146.157 1087.501 1145.153 1071.765 1148.166 C 1057.035 1151.012 1042.471 1155.197 1042.471 1174.782 C 1042.471 1192.024 1055.361 1199.055 1071.096 1199.055 C 1083.148 1199.055 1093.694 1194.87 1101.562 1185.663 C 1101.562 1195.037 1106.249 1199.055 1113.615 1199.055 C 1118.134 1199.055 1121.315 1198.218 1123.826 1196.711 L 1123.826 1185.663 Z  M 1131.526 1169.76 C 1132.363 1191.187 1148.768 1199.055 1168.186 1199.055 C 1185.763 1199.055 1205.013 1192.359 1205.013 1171.769 C 1205.013 1155.029 1190.952 1150.342 1176.723 1147.162 C 1163.499 1143.981 1148.433 1142.307 1148.433 1132.096 C 1148.433 1123.391 1158.309 1121.048 1166.847 1121.048 C 1176.221 1121.048 1185.93 1124.563 1186.934 1135.611 L 1201.163 1135.611 C 1199.991 1114.519 1184.758 1108.493 1165.675 1108.493 C 1150.609 1108.493 1133.367 1115.691 1133.367 1133.1 C 1133.367 1149.673 1147.596 1154.36 1161.657 1157.54 C 1175.886 1160.721 1189.947 1162.562 1189.947 1173.61 C 1189.947 1184.491 1177.895 1186.5 1169.023 1186.5 C 1157.305 1186.5 1146.257 1182.482 1145.755 1169.76 L 1131.526 1169.76 Z " fill-rule="evenodd" fill="rgb(255,255,255)"/><g id="Group"><path d=" M 152.243 1267.666 L 46.976 1206.89 L 152.243 1146.114 L 152.243 1267.666 Z " fill="rgb(255,255,255)"/><path d=" M 161.307 1267.644 L 266.535 1206.89 L 161.307 1146.137 L 161.307 1267.644 Z " fill="rgb(255,255,255)"/><path d=" M 271.071 1199.07 L 271.071 1077.527 L 165.812 1138.299 L 271.071 1199.07 Z " fill="rgb(255,255,255)"/><path d=" M 266.535 1069.689 L 161.276 1008.913 L 161.284 1130.456 L 266.535 1069.689 Z " fill="rgb(255,255,255)"/><path d=" M 46.969 1069.693 L 152.243 1008.913 L 152.243 1130.474 L 46.969 1069.693 Z " fill="rgb(255,255,255)"/><path d=" M 42.464 1199.057 L 42.464 1077.532 L 147.707 1138.294 L 42.464 1199.057 Z " fill="rgb(255,255,255)"/><path d=" M 111.758 1159.068 L 111.758 1117.53 L 147.731 1138.299 L 111.758 1159.068 Z " fill="rgb(69,70,71)"/><path d=" M 152.267 1187.666 L 116.286 1166.893 L 152.267 1146.119 L 152.267 1187.666 Z " fill="rgb(69,70,71)"/><path d=" M 161.307 1187.661 L 197.268 1166.899 L 161.307 1146.137 L 161.307 1187.661 Z " fill="rgb(69,70,71)"/><path d=" M 201.785 1159.068 L 201.785 1117.53 L 165.812 1138.299 L 201.785 1159.068 Z " fill="rgb(69,70,71)"/><path d=" M 197.273 1109.696 L 161.307 1088.931 L 161.307 1130.46 L 197.273 1109.696 Z " fill="rgb(69,70,71)"/><path d=" M 116.29 1109.683 L 152.27 1088.91 L 152.27 1130.456 L 116.29 1109.683 Z " fill="rgb(69,70,71)"/></g></g></svg>