<?xml version="1.0" standalone="no"?>
<!DOCTYPE svg PUBLIC "-//W3C//DTD SVG 20010904//EN"
 "http://www.w3.org/TR/2001/REC-SVG-20010904/DTD/svg10.dtd">
<svg version="1.0" xmlns="http://www.w3.org/2000/svg"
 width="700.000000pt" height="700.000000pt" viewBox="0 0 700.000000 700.000000"
 preserveAspectRatio="xMidYMid meet">
<metadata>
Created by potrace 1.14, written by Peter Selinger 2001-2017
</metadata>
<g transform="translate(0.000000,700.000000) scale(0.100000,-0.100000)"
fill="#000000" stroke="none">
<path d="M3315 6971 c-28 -16 -104 -60 -170 -98 -189 -110 -387 -225 -418
-242 -16 -9 -36 -21 -45 -26 -55 -33 -1054 -610 -1107 -640 -11 -6 -39 -23
-62 -38 -24 -15 -45 -27 -47 -27 -2 0 -114 -64 -248 -141 -133 -78 -261 -152
-283 -164 -183 -104 -357 -206 -388 -226 l-36 -25 156 -90 c85 -49 174 -100
197 -113 22 -12 66 -38 96 -56 30 -18 75 -44 100 -57 25 -14 86 -49 135 -78
50 -29 108 -62 130 -75 95 -53 116 -65 180 -104 37 -23 69 -41 70 -41 3 0 681
-393 757 -439 41 -25 94 -56 380 -224 147 -86 272 -157 278 -157 5 0 10 -4 10
-10 0 -5 4 -10 10 -10 5 0 33 -14 62 -31 29 -18 69 -41 88 -52 19 -11 63 -36
98 -56 35 -20 73 -41 85 -48 12 -7 24 -8 27 -3 6 10 6 3287 0 3294 -3 2 -28
-8 -55 -23z"/>
<path d="M3590 6158 c0 -463 -2 -1209 -5 -1656 l-6 -814 21 7 c11 4 138 74
283 157 144 83 282 162 307 176 25 14 137 80 250 147 265 158 845 496 1050
613 19 10 123 70 230 132 107 62 213 123 235 135 22 13 139 80 259 149 121 69
223 126 228 126 30 0 -16 40 -97 86 -46 25 -109 61 -260 149 -88 51 -176 102
-195 112 -20 11 -92 53 -160 93 -69 40 -141 82 -160 93 -19 10 -124 71 -233
134 -110 63 -213 122 -230 132 -18 10 -162 94 -322 186 -266 154 -399 230
-845 488 -199 115 -213 123 -288 164 l-62 35 0 -844z"/>
<path d="M390 3505 c0 -916 4 -1665 8 -1665 4 0 12 4 18 9 5 5 59 37 119 72
119 67 138 78 233 133 34 20 88 51 120 69 31 18 190 110 352 204 162 94 313
181 335 193 22 12 45 26 50 30 6 4 30 19 55 32 25 14 169 96 320 183 151 86
302 172 335 190 33 18 159 90 280 160 121 70 234 135 250 145 17 9 72 41 123
71 51 30 110 63 130 74 20 11 39 22 42 25 3 3 16 11 30 18 49 24 83 47 83 57
0 8 -292 185 -483 293 -25 14 -106 60 -180 102 -74 42 -162 92 -195 110 -98
53 -135 75 -230 130 -49 29 -115 66 -145 83 -30 16 -59 33 -65 37 -24 18 -258
150 -266 150 -5 0 -9 5 -9 10 0 6 -4 10 -9 10 -6 0 -106 56 -223 123 -195 114
-648 374 -725 419 -69 38 -100 56 -151 87 -29 17 -57 31 -62 31 -6 0 -10 5
-10 10 0 6 -4 10 -10 10 -5 0 -32 14 -60 30 -28 17 -53 30 -55 30 -3 0 -5
-749 -5 -1665z"/>
<path d="M6435 5086 c-279 -159 -657 -378 -728 -420 -43 -25 -80 -46 -82 -46
-2 0 -39 -21 -82 -46 -85 -51 -317 -186 -369 -215 -18 -9 -123 -70 -234 -134
-111 -64 -236 -135 -278 -157 -41 -22 -161 -90 -266 -150 -105 -61 -251 -145
-324 -187 -73 -42 -140 -80 -150 -86 -9 -5 -58 -34 -108 -63 -85 -48 -123 -77
-113 -86 2 -2 76 -45 164 -95 88 -51 167 -96 175 -101 20 -13 170 -100 195
-114 77 -43 494 -279 640 -361 22 -13 171 -98 330 -190 304 -175 315 -182 423
-244 37 -21 121 -69 187 -108 66 -38 140 -81 165 -95 25 -14 163 -93 307 -177
144 -83 266 -151 270 -151 4 0 8 740 8 1645 0 1098 -3 1645 -10 1645 -5 -1
-59 -29 -120 -64z"/>
<path d="M3285 3275 c-44 -25 -87 -49 -95 -54 -8 -6 -37 -22 -65 -37 -27 -14
-62 -35 -77 -45 -14 -11 -29 -19 -32 -19 -6 0 -105 -58 -761 -443 -241 -142
-391 -229 -445 -260 -19 -10 -107 -61 -195 -112 -88 -51 -243 -141 -345 -199
-102 -58 -192 -111 -200 -116 -8 -6 -27 -15 -42 -21 -16 -6 -28 -14 -28 -18 0
-3 -12 -12 -28 -19 -60 -27 -446 -258 -449 -268 -3 -9 144 -100 292 -180 11
-6 97 -55 190 -108 94 -54 190 -110 215 -124 25 -14 227 -131 450 -260 223
-129 423 -244 445 -257 22 -12 182 -104 355 -205 173 -100 340 -196 370 -213
30 -16 60 -33 65 -37 6 -5 30 -19 55 -33 25 -14 127 -72 228 -130 100 -58 182
-102 183 -99 4 26 3 3302 -1 3302 -3 0 -41 -20 -85 -45z"/>
<path d="M3589 3282 c-1 -50 -1 -669 0 -2090 1 -651 5 -1182 10 -1182 5 0 14
7 21 15 7 8 16 15 20 15 5 0 107 57 227 127 120 69 236 136 258 148 22 12 107
61 188 109 82 47 167 97 190 110 23 13 130 74 237 136 107 62 294 170 415 240
121 70 281 162 355 205 225 131 363 210 645 372 149 86 278 161 287 167 15 10
-9 27 -164 117 -99 57 -201 116 -227 130 -25 14 -112 64 -193 111 -80 47 -152
88 -160 92 -7 3 -28 16 -47 27 -31 18 -439 255 -516 299 -82 47 -332 191 -345
199 -8 5 -58 34 -110 64 -52 30 -185 109 -295 174 -110 66 -207 122 -215 126
-8 4 -35 20 -60 35 -97 58 -466 268 -492 279 -28 12 -28 12 -29 -25z"/>
</g>
</svg>
