<?xml version="1.0" standalone="no"?><!-- Generator: Gravit.io --><svg xmlns="http://www.w3.org/2000/svg" xmlns:xlink="http://www.w3.org/1999/xlink" style="isolation:isolate" viewBox="0 0 705 704.995" width="705" height="704.995"><defs><clipPath id="_clipPath_rD1qn9uKTJqczf0O09OTfz1xCwWTHNXr"><rect width="705" height="704.995"/></clipPath></defs><g clip-path="url(#_clipPath_rD1qn9uKTJqczf0O09OTfz1xCwWTHNXr)"><path d=" M 486.316 290.087 C 494.048 290.107 499.478 287.992 501.422 280.315 C 503.264 273.042 499.989 263.694 491.44 262.344 C 486.453 261.556 474.534 262.167 463.373 263.937 C 465.968 271.469 468.311 279.677 470.394 288.421 C 476.456 289.463 482.069 290.076 486.316 290.087 Z " fill="rgb(255,255,255)" vector-effect="non-scaling-stroke" stroke-width="6" stroke="rgb(0,0,0)" stroke-linejoin="round" stroke-linecap="round" stroke-miterlimit="10"/><path d=" M 501.762 522.396 C 493.328 513.375 481.286 507.749 468.349 506.67 C 464.223 517.498 459.225 526.231 453.483 533.637 C 464.756 535.289 472.213 540.375 481.106 546.093 C 494.772 554.878 514.116 535.612 501.762 522.396 Z " fill="rgb(246,210,161)" vector-effect="non-scaling-stroke" stroke-width="2" stroke="rgb(0,0,0)" stroke-linejoin="miter" stroke-linecap="square" stroke-miterlimit="3"/><path d=" M 221.953 636.341 C 221.695 656.441 251.215 656.769 257.113 639.71 C 260.584 629.671 263.385 620.889 270.329 612.506 C 258.207 611.608 246.221 609.083 234.793 604.435 C 226.992 614.444 222.097 625.079 221.953 636.341 Z " fill="rgb(246,210,161)" vector-effect="non-scaling-stroke" stroke-width="2" stroke="rgb(0,0,0)" stroke-linejoin="miter" stroke-linecap="square" stroke-miterlimit="3"/><path d=" M 87.701 230.366 C 81.472 231.021 75.892 226.495 75.236 220.258 C 74.58 214.02 79.098 208.433 85.327 207.779 C 86.783 207.626 88.199 207.766 89.53 208.134 C 89.123 199.21 89.514 190.944 90.649 183.237 C 65.742 184.167 54.329 198.7 53.094 216.366 C 51.784 235.108 64.235 253.834 87.655 255.471 C 91.306 255.726 94.55 255.52 97.429 254.919 C 94.974 245.804 93.091 237.217 91.774 229.127 C 90.54 229.774 89.17 230.212 87.701 230.366 Z " fill="rgb(116,205,221)" vector-effect="non-scaling-stroke" stroke-width="2" stroke="rgb(0,0,0)" stroke-linejoin="miter" stroke-linecap="square" stroke-miterlimit="3"/><path d=" M 85.327 207.778 C 79.098 208.433 74.58 214.02 75.236 220.257 C 75.892 226.494 81.473 231.02 87.701 230.365 C 89.17 230.211 90.54 229.773 91.774 229.126 C 90.57 221.736 89.832 214.754 89.53 208.132 C 88.199 207.765 86.783 207.625 85.327 207.778 Z " fill="rgb(0,0,0)"/><path d=" M 359.592 87.468 C 360.103 86.788 360.688 86.151 361.366 85.581 C 366.164 81.556 373.323 82.186 377.353 86.991 C 381.32 91.72 380.773 98.721 376.181 102.779 C 381.791 108.493 387.361 114.758 392.764 121.62 C 394.465 119.776 396.081 117.574 397.591 114.96 C 409.327 94.628 400.767 73.833 384.495 64.439 C 370.376 56.288 353.636 56.775 339.597 72.608 C 341.445 73.788 343.262 75.009 345.045 76.268 C 349.77 79.603 354.649 83.338 359.592 87.468 Z " fill="rgb(116,206,221)" vector-effect="non-scaling-stroke" stroke-width="2" stroke="rgb(0,0,0)" stroke-linejoin="miter" stroke-linecap="square" stroke-miterlimit="3"/><path d=" M 377.354 86.992 C 373.324 82.187 366.165 81.556 361.367 85.582 C 360.688 86.152 360.103 86.789 359.593 87.469 C 365.083 92.056 370.652 97.146 376.183 102.781 C 380.774 98.722 381.321 91.72 377.354 86.992 Z " fill="rgb(0,0,0)"/><path d=" M 177.003 573.285 C 178.949 577.646 189.642 577.897 196.79 573.151 C 193.086 567.053 190.228 560.483 188.02 553.62 C 180.407 558.646 173.953 566.446 177.003 573.285 Z " fill="rgb(246,210,161)" vector-effect="non-scaling-stroke" stroke-width="2" stroke="rgb(0,0,0)" stroke-linejoin="miter" stroke-linecap="square" stroke-miterlimit="3"/><path d=" M 470.393 288.421 C 468.311 279.677 465.967 271.469 463.372 263.937 C 456.853 245.016 448.751 230.379 439.22 222.386 C 430.076 179.736 412.533 146.725 392.765 121.621 C 387.362 114.76 381.792 108.494 376.182 102.78 C 370.651 97.145 365.082 92.056 359.592 87.468 C 354.649 83.338 349.77 79.603 345.046 76.269 C 343.263 75.01 341.445 73.79 339.598 72.609 C 301.563 48.327 249.666 41.435 179.895 82.186 C 131.269 110.587 97.481 136.803 90.648 183.236 C 89.514 190.944 89.123 199.209 89.529 208.133 C 89.831 214.755 90.57 221.737 91.773 229.127 C 93.09 237.216 94.974 245.803 97.428 254.919 C 99.861 263.954 102.853 273.506 106.461 283.655 C 118.602 317.804 140.72 350.645 153.263 369.652 C 165.972 388.91 178.013 424.569 179.894 459.669 C 181.31 486.083 178.113 522.804 188.019 553.62 C 190.226 560.483 193.085 567.054 196.789 573.151 C 203.331 583.926 212.508 593.231 225.414 600.069 C 228.49 601.698 231.621 603.144 234.792 604.434 C 246.22 609.082 258.207 611.607 270.328 612.505 C 320.799 616.244 373.556 591.927 397.538 576.668 C 419.621 562.619 438.941 552.389 453.481 533.637 C 459.223 526.231 464.221 517.498 468.347 506.67 C 473.181 493.982 476.821 478.424 479.063 458.768 C 485.483 402.501 482.002 337.184 470.393 288.421 Z " fill="rgb(116,205,221)" vector-effect="non-scaling-stroke" stroke-width="2" stroke="rgb(0,0,0)" stroke-linejoin="miter" stroke-linecap="square" stroke-miterlimit="3"/><path d=" M 233.446 117.681 C 233.446 89.368 256.836 66.381 285.646 66.381 C 314.456 66.381 337.846 89.368 337.846 117.681 C 337.846 145.995 314.456 168.981 285.646 168.981 C 256.836 168.981 233.446 145.995 233.446 117.681 Z " fill="rgb(255,255,255)" vector-effect="non-scaling-stroke" stroke-width="2" stroke="rgb(0,0,0)" stroke-linejoin="miter" stroke-linecap="square" stroke-miterlimit="3"/><path d=" M 116.651 177.081 C 116.651 148.768 140.041 125.781 168.851 125.781 C 197.661 125.781 221.051 148.768 221.051 177.081 C 221.051 205.395 197.661 228.381 168.851 228.381 C 140.041 228.381 116.651 205.395 116.651 177.081 Z " fill="rgb(255,255,255)" vector-effect="non-scaling-stroke" stroke-width="2" stroke="rgb(0,0,0)" stroke-linejoin="miter" stroke-linecap="square" stroke-miterlimit="3"/><path d=" M 297.796 109.581 C 297.796 100.64 305.055 93.381 313.996 93.381 C 322.937 93.381 330.196 100.64 330.196 109.581 C 330.196 118.522 322.937 125.781 313.996 125.781 C 305.055 125.781 297.796 118.522 297.796 109.581 Z " fill="rgb(0,0,0)"/><path d=" M 318.496 110.481 C 318.496 108.494 320.109 106.881 322.096 106.881 C 324.083 106.881 325.696 108.494 325.696 110.481 C 325.696 112.468 324.083 114.081 322.096 114.081 C 320.109 114.081 318.496 112.468 318.496 110.481 Z " fill="rgb(255,255,255)"/><path d=" M 179.895 166.281 C 179.895 157.34 187.154 150.081 196.095 150.081 C 205.036 150.081 212.295 157.34 212.295 166.281 C 212.295 175.222 205.036 182.481 196.095 182.481 C 187.154 182.481 179.895 175.222 179.895 166.281 Z " fill="rgb(0,0,0)"/><path d=" M 200.596 167.181 C 200.596 165.194 202.209 163.581 204.196 163.581 C 206.183 163.581 207.796 165.194 207.796 167.181 C 207.796 169.168 206.183 170.781 204.196 170.781 C 202.209 170.781 200.596 169.168 200.596 167.181 Z " fill="rgb(255,255,255)"/><path d=" M 263.083 219.078 C 253.419 223.584 253.783 228.573 246.251 233.798 C 248.256 239.091 250.965 246.157 254.228 254.468 C 261.583 273.197 283.047 258.714 278.166 247.752 C 274.587 239.711 268.19 225.344 265.031 218.248 C 264.408 218.491 263.763 218.761 263.083 219.078 Z " fill="rgb(255,255,255)" vector-effect="non-scaling-stroke" stroke-width="2" stroke="rgb(0,0,0)" stroke-linejoin="miter" stroke-linecap="square" stroke-miterlimit="3"/><path d=" M 288.975 214.35 C 277.911 218.814 274.438 214.588 265.032 218.248 C 268.191 225.344 274.588 239.711 278.167 247.752 C 283.048 258.714 308.175 252.453 299.176 234.457 C 295.09 226.284 291.586 219.417 288.975 214.35 Z " fill="rgb(255,255,255)" vector-effect="non-scaling-stroke" stroke-width="2" stroke="rgb(0,0,0)" stroke-linejoin="miter" stroke-linecap="square" stroke-miterlimit="3"/><path d=" M 371.989 337.733 C 365.168 334.699 352.394 333.009 340.647 334.151 C 339.563 339.992 337.354 345.751 332.932 351.496 C 342.743 357.204 352.159 361.12 359.86 363.206 C 367.323 365.226 373.116 364.589 376.981 357.677 C 380.643 351.128 379.899 341.25 371.989 337.733 Z " fill="rgb(247,211,162)" vector-effect="non-scaling-stroke" stroke-width="2" stroke="rgb(0,0,0)" stroke-linejoin="miter" stroke-linecap="square" stroke-miterlimit="3"/><path d=" M 315.866 366.368 C 323.675 361.39 329.122 356.448 332.932 351.496 C 337.354 345.751 339.563 339.993 340.647 334.151 C 341.501 329.553 341.665 324.904 341.665 320.169" fill="none" vector-effect="non-scaling-stroke" stroke-width="2" stroke="rgb(0,0,0)" stroke-linejoin="round" stroke-linecap="round" stroke-miterlimit="10"/><path d=" M 291.202 184.614 C 285.319 182.106 279.56 181.875 272.752 183.556 C 271.587 189.948 264.797 197.135 255.034 201.482 C 245.644 205.663 236.141 206.043 230.509 203.031 C 224.333 207.33 220.561 212.041 218.608 218.466 C 214.777 231.073 224.679 243.009 235.596 239.029 C 240.434 237.265 243.77 235.518 246.252 233.797 C 253.784 228.572 253.42 223.583 263.084 219.077 C 263.764 218.76 264.409 218.49 265.033 218.247 C 274.439 214.587 277.912 218.813 288.976 214.349 C 291.038 213.517 293.357 212.39 296.035 210.846 C 306.101 205.041 303.323 189.784 291.202 184.614 Z " fill="rgb(172,150,123)" vector-effect="non-scaling-stroke" stroke-width="2" stroke="rgb(0,0,0)" stroke-linejoin="miter" stroke-linecap="square" stroke-miterlimit="3"/><path d=" M 255.034 201.482 C 264.797 197.135 271.587 189.948 272.752 183.556 C 273.104 181.624 272.948 179.764 272.198 178.077 C 268.964 170.812 256.035 169.511 243.32 175.171 C 230.606 180.832 222.921 191.312 226.155 198.576 C 227.001 200.476 228.514 201.964 230.509 203.03 C 236.141 206.042 245.644 205.663 255.034 201.482 Z " fill="rgb(0,0,0)"/><path d=" M 501.858 277.863 C 497.416 276.986 490.95 275.871 485.583 275.641" fill="none" vector-effect="non-scaling-stroke" stroke-width="6" stroke="rgb(0,0,0)" stroke-linejoin="round" stroke-linecap="round" stroke-miterlimit="10"/><path d=" M 500.958 542.011 C 499.42 537.751 495.251 529.456 486.75 525.862" fill="none" vector-effect="non-scaling-stroke" stroke-width="2" stroke="rgb(0,0,0)" stroke-linejoin="round" stroke-linecap="round" stroke-miterlimit="10"/><path d=" M 236.405 650.925 C 234.824 646.148 233.207 637.546 236.867 627.347" fill="none" vector-effect="non-scaling-stroke" stroke-width="2" stroke="rgb(0,0,0)" stroke-linejoin="round" stroke-linecap="round" stroke-miterlimit="10"/><path d=" M 378.036 355.421 C 373.973 353.423 368.016 350.673 362.891 349.062" fill="none" vector-effect="non-scaling-stroke" stroke-width="2" stroke="rgb(0,0,0)" stroke-linejoin="round" stroke-linecap="round" stroke-miterlimit="10"/><path d=" M 385 311.5 C 385 249.961 433.841 200 494 200 C 554.159 200 603 249.961 603 311.5 C 603 373.039 554.159 423 494 423 C 433.841 423 385 373.039 385 311.5 Z " fill="rgb(235,235,235)"/><g id="logo_small"><g id="layer101"><path d=" M 438 407.5 C 410.3 391.4 387.5 377.9 387.3 377.4 C 387.1 376.6 487.8 318 489.4 318 C 489.7 318 490 344.8 490 377.5 C 490 410.2 489.7 437 489.3 436.9 C 488.8 436.8 465.8 423.6 438 407.5 Z " fill="rgb(11,121,75)"/><path d=" M 497 377.5 C 497 337.4 497.3 318 498 318 C 499.2 318 597.8 374.7 599.8 376.5 C 600.9 377.5 590.8 383.7 549.7 407.4 C 521.5 423.7 498.1 437 497.7 437 C 497.3 437 497 410.2 497 377.5 Z " fill="rgb(11,121,75)"/><path d=" M 383 310.9 C 383 277.9 383.3 251.1 383.8 251.3 C 417.3 270.4 484.9 309.6 485.8 310.5 C 486.8 311.4 476.8 317.6 435.7 341.3 C 407.5 357.7 384 371 383.7 371 C 383.3 371 383 344 383 310.9 Z " fill="rgb(11,121,75)"/><path d=" M 552.2 341.3 C 512.1 318.1 501.2 311.4 502.2 310.5 C 504.2 308.7 602.8 252 604 252 C 604.7 252 605 272.1 605 311.5 C 605 344.2 604.7 371 604.3 371 C 603.8 370.9 580.4 357.6 552.2 341.3 Z " fill="rgb(11,121,75)"/><path d=" M 438.5 275.6 C 410.5 259.4 387.4 245.8 387.3 245.3 C 387 244.4 488.8 185.5 489.5 186.2 C 489.8 186.5 489.9 213.3 489.8 245.9 L 489.5 305 L 438.5 275.6 Z " fill="rgb(11,121,75)"/><path d=" M 497 245.6 C 497 203.9 497.3 186 498.1 186 C 499.3 186 597.8 242.6 599.8 244.5 C 600.8 245.4 594.2 249.6 567.3 265.2 C 548.7 275.9 526 289 516.9 294.3 C 507.8 299.6 499.6 304.2 498.7 304.6 C 497.1 305.2 497 300.9 497 245.6 Z " fill="rgb(11,121,75)"/></g><g id="layer102"><path d=" M 438 407.5 C 410.3 391.4 387.5 377.9 387.3 377.4 C 387.1 376.6 487.8 318 489.4 318 C 489.7 318 490 344.8 490 377.5 C 490 410.2 489.7 437 489.3 436.9 C 488.8 436.8 465.8 423.6 438 407.5 Z " fill="rgb(69,70,71)"/><path d=" M 552.2 341.3 C 512.1 318.1 501.2 311.4 502.2 310.5 C 504.2 308.7 602.8 252 604 252 C 604.7 252 605 272.1 605 311.5 C 605 344.2 604.7 371 604.3 371 C 603.8 370.9 580.4 357.6 552.2 341.3 Z " fill="rgb(69,70,71)"/><path d=" M 497 338.1 C 497 325 497.4 318 498 318 C 499.9 318 532.9 337.5 532.2 338.2 C 531.3 339.1 500.5 356.9 498.6 357.6 C 497.2 358.1 497 355.9 497 338.1 Z " fill="rgb(69,70,71)"/><path d=" M 451 311.5 C 451 300.2 451.4 291 451.8 291 C 452.9 291 484.1 308.9 485.8 310.5 C 486.9 311.5 483.7 313.7 469.5 321.8 C 459.8 327.4 451.6 332 451.4 332 C 451.2 332 451 322.8 451 311.5 Z " fill="rgb(69,70,71)"/><path d=" M 438.5 275.6 C 410.5 259.4 387.4 245.8 387.3 245.3 C 387 244.4 488.8 185.5 489.5 186.2 C 489.8 186.5 489.9 213.3 489.8 245.9 L 489.5 305 L 438.5 275.6 Z " fill="rgb(69,70,71)"/><path d=" M 497 284.4 L 497 263.8 L 500.3 265.7 C 502 266.7 510.1 271.4 518.2 276 C 526.2 280.6 532.7 284.7 532.5 285.1 C 532 285.9 498.6 305 497.7 305 C 497.3 305 497 295.7 497 284.4 Z " fill="rgb(69,70,71)"/></g><g id="layer103"><path d=" M 438 407.5 C 410.3 391.4 387.5 377.9 387.3 377.4 C 387.2 376.9 402.4 367.7 421.2 356.9 L 455.3 337.3 L 458.5 339.4 C 460.2 340.5 468 345.1 475.8 349.5 L 489.9 357.5 L 490 397.3 C 490 419.1 489.7 437 489.3 436.9 C 488.8 436.8 465.8 423.6 438 407.5 Z " fill="rgb(43,181,115)"/><path d=" M 569.2 351.1 C 550.4 340.2 534.6 330.9 534.2 330.5 C 533.8 330 534.1 330 534.8 330.4 C 535.8 331 536.1 327.2 536 311 L 535.8 290.8 L 569.4 271.4 C 587.9 260.7 603.4 252 604 252 C 604.7 252 605 271.7 605 311.5 C 605 344.2 604.7 371 604.3 371 C 603.8 370.9 588.1 362 569.2 351.1 Z " fill="rgb(43,181,115)"/><path d=" M 529.8 328.4 C 526 326.4 526.2 325.6 530 327.5 C 531.7 328.4 533 329.3 533 329.5 C 533 330.2 532.9 330.1 529.8 328.4 Z " fill="rgb(43,181,115)"/><path d=" M 476 325.6 C 476 325.3 477.4 324.4 479 323.5 C 480.7 322.6 482 322.2 482 322.4 C 482 322.7 480.7 323.6 479 324.5 C 477.4 325.4 476 325.8 476 325.6 Z " fill="rgb(43,181,115)"/><path d=" M 503.7 313.4 C 502.2 312.6 501.2 311.5 501.5 310.9 C 502.2 309.8 508 306.7 508 307.4 C 508 307.7 506.6 308.7 504.8 309.6 L 501.6 311.2 L 504.3 312.7 C 505.8 313.4 507 314.3 507 314.5 C 507 315.2 506.9 315.1 503.7 313.4 Z " fill="rgb(43,181,115)"/><path d=" M 484.8 302.4 C 481 300.4 481.2 299.6 485 301.5 C 486.7 302.4 488 303.3 488 303.5 C 488 304.2 487.9 304.1 484.8 302.4 Z " fill="rgb(43,181,115)"/><path d=" M 477.8 298.4 C 474 296.4 474.2 295.6 478 297.5 C 479.7 298.4 481 299.3 481 299.5 C 481 300.2 480.9 300.1 477.8 298.4 Z " fill="rgb(43,181,115)"/><path d=" M 521 299.6 C 521 299.3 522.4 298.4 524 297.5 C 525.7 296.6 527 296.2 527 296.4 C 527 296.7 525.7 297.6 524 298.5 C 522.4 299.4 521 299.8 521 299.6 Z " fill="rgb(43,181,115)"/><path d=" M 528 295.6 C 528 295.3 529.4 294.4 531 293.5 C 532.7 292.6 534 292.2 534 292.4 C 534 292.7 532.7 293.6 531 294.5 C 529.4 295.4 528 295.8 528 295.6 Z " fill="rgb(43,181,115)"/><path d=" M 424.5 267.5 C 404.2 255.8 387.4 245.8 387.3 245.3 C 387.1 244.6 487.8 186 489.3 186 C 489.7 186 490 203.7 490 225.4 L 490 264.8 L 473 274.6 C 459.7 282.3 456.2 284.7 457.4 285.5 C 458.2 286 459.7 287 460.7 287.7 C 461.7 288.3 462.3 288.9 462 288.9 C 461.7 288.9 444.9 279.3 424.5 267.5 Z " fill="rgb(43,181,115)"/></g></g></g></svg>